<svg version="1.2" xmlns="http://www.w3.org/2000/svg" viewBox="0 0 2083 3143" width="2083" height="3143"><style>.s0{fill:#2273b2}.s1{fill:#5c5d5d}.s2{fill:#3e3e3f}</style><path class="s0" d="m720.5 1168.9v-653.9l-89.9 46.3v607.6h-83.4v-673.7l170.7-86.1l95.1 46.3v-314.5l228.6-109.3l210.7 109.3v188.7l113-53l169.6 99.4v792.9h-59.1v-726.7l-105.3-53v779.7h-187.6v-968.4l-141.3-66.3v1034.7h-214.5z" /><path fill-rule="evenodd" class="s1" d="m511.5 1253.8h1058.6v179.5h-1058.6zm0 314.2v244.5c0 288.1 235.7 523.8 526.1 523.8c290.2 0 532.5-235.7 532.5-523.8v-244.5z" /><path fill-rule="evenodd" class="s2" d="m511.5 1253.8h546.4v179.5h-546.4zm0 314.2v244.5c0 288.1 235.7 523.8 526.1 523.8l3.2-768.3z" /><path class="s1" d="m929.1 2568.4c-617.1-56.1-686.9-599.2-686.9-1089.7c0-90.5 186.8-90.5 203.8-12.7c5.7 398.2 5.7 912.3 594.5 912.3c588.7 0 594.4-514.1 594.4-912.3c22.6-77.8 203.8-72.4 203.8 12.7c0 490.5-69.8 1033.6-688.8 1089.7v273.3h320.8c139.7 0 135.9 195.5 0 195.5h-862.4c-128.3 0-132.1-195.5 0-195.5h320.8c0 0 0-273.3 0-273.3z" /><path class="s2" d="m608.7 3040.3c-128.3 0-132.1-195.5 0-195.5h320.8v-273.3c-617.1-56.2-686.9-599.2-686.9-1089.7c0-90.6 186.8-90.6 203.8-12.7c5.6 398.2 5.6 912.3 594.4 912.3v655.8z" /></svg>